<?xml version="1.0" encoding="UTF-8" standalone="no"?>
<!-- Created with Inkscape (http://www.inkscape.org/) -->

<svg
   width="405.73376"
   height="405.73376"
   viewBox="0 0 405.73376 405.73376"
   version="1.1"
   id="svg5"
   inkscape:version="1.1.2 (0a00cf5339, 2022-02-04, custom)"
   sodipodi:docname="icon.svg"
   xmlns:inkscape="http://www.inkscape.org/namespaces/inkscape"
   xmlns:sodipodi="http://sodipodi.sourceforge.net/DTD/sodipodi-0.dtd"
   xmlns="http://www.w3.org/2000/svg"
   xmlns:svg="http://www.w3.org/2000/svg">
  <sodipodi:namedview
     id="namedview7"
     pagecolor="#505050"
     bordercolor="#eeeeee"
     borderopacity="1"
     inkscape:pageshadow="0"
     inkscape:pageopacity="0"
     inkscape:pagecheckerboard="0"
     inkscape:document-units="px"
     showgrid="false"
     inkscape:zoom="1.7050781"
     inkscape:cx="87.386025"
     inkscape:cy="130.49255"
     inkscape:window-width="3440"
     inkscape:window-height="1371"
     inkscape:window-x="0"
     inkscape:window-y="32"
     inkscape:window-maximized="1"
     inkscape:current-layer="layer1" />
  <defs
     id="defs2" />
  <g
     inkscape:label="Layer 1"
     inkscape:groupmode="layer"
     id="layer1"
     transform="translate(-59.248423,-103.05897)">
    <g
       id="g17188"
       transform="translate(21.132875,76.009045)">
      <path
         id="path898"
         style="fill:#363636;fill-opacity:1;stroke:#ffffff;stroke-width:4.89781;stroke-linecap:square;stroke-linejoin:round;stroke-miterlimit:4;stroke-dasharray:none;stroke-opacity:1;paint-order:markers fill stroke"
         d="m 305.2168,111.79883 -208.857425,0.0195 -0.002,7.12695 c -11.594159,1.81413 -21.829899,8.74259 -29.50586,19.56446 L 61.375,121.56055 H 40.564453 V 340.4043 h 29.763672 v -77.82618 c 6.932352,7.88028 15.8111,12.49281 25.992187,13.25586 l -0.01172,44.83594 208.943358,0.0723 -0.0195,-121.29688 37.19727,84.46094 h 23.95508 l 45.00976,-105.30859 v 135.52148 h 30.00586 V 118.15234 H 411.39453 L 355.76172,245.24414 305.2207,132.81055 Z M 94.042969,152.06836 c 0.787053,0 1.545712,0.0787 2.30664,0.15039 l -0.02148,90.38281 c -0.280713,0.01 -0.547478,0.0547 -0.832031,0.0547 -10.595356,0 -19.758377,-6.7565 -25.167969,-17.60937 v -59.83594 c 6.074116,-8.366 14.625689,-13.14258 23.714844,-13.14258 z" />
      <path
         d="m 142.51252,340.56168 h 39.53082 l 22.50661,-68.51281 53.95812,-153.44343 h -36.64536 l -39.53082,131.97399 8.94493,0.31572 -37.22245,-132.28971 h -40.685 l 54.53521,153.44343 z"
         id="path16374"
         style="font-size:192px;line-height:1.25;font-family:Cantarell;-inkscape-font-specification:'Cantarell, @wght=700';font-variation-settings:'wght' 700;fill:#ffffff;fill-opacity:1;stroke-width:1.57203" />
      <path
         d="m 267.17228,314.11986 h 31.45775 V 118.15267 h -31.45775 z"
         id="path16376"
         style="font-size:192px;line-height:1.25;font-family:Cantarell;-inkscape-font-specification:'Cantarell, @wght=700';font-variation-settings:'wght' 700;fill:#ffffff;fill-opacity:1;stroke-width:1.36145" />
    </g>
  </g>
</svg>
